  0
SECTION
  2
HEADER
  9
$INSBASE
 10
0.0000
 20
0.0000
  9
$EXTMIN
 10
-0.0027950849718747376
 20
-0.052795084971874739
  9
$EXTMAX
 10
0.052795084971874739
 20
0.052795084971874739
  9
$LIMMIN
 10
-0.0027950849718747376
 20
-0.052795084971874739
  9
$LIMMAX
 10
0.052795084971874739
 20
0.052795084971874739
  9
$TEXTSTYLE
  7
STANDARD
  9
$CLAYER
  8
default
  0
ENDSEC
  0
SECTION
  2
TABLES
  0
TABLE
  2
LTYPE
 70
4948253
  0
LTYPE
  2
CONTINUOUS
 70
    64
  3
Solid line
 72
    65
 73
     0
 40
0.0
  0
ENDTAB
  0
TABLE
  2
LAYER
 70
     5
  0
LAYER
  2
default
 70
    64
 62
     7
  6
CONTINUOUS
  0
ENDTAB
  0
TABLE
  2
STYLE
 70
     1
  0
STYLE
  2
STANDARD
 70
     0
 40
0.0
 41
1.0
 50
0.0
 71
     0
 42
0.2
  3
txt
  4

  0
ENDTAB
  0
TABLE
  2
VIEW
 70
     0
  0
ENDTAB
  0
ENDSEC
  0
SECTION
  2
BLOCKS
  0
ENDSEC
  0
SECTION
  2
ENTITIES
  0
LINE
  8
default
 10
0
 20
0.050000000000000003
 30
0.0
 11
0.0050000000000000001
 21
0.050000000000000003
 31
0.0
  0
LINE
  8
default
 10
0.0050000000000000001
 20
0.044999999999999998
 30
0.0
 11
0.0050000000000000001
 21
0.050000000000000003
 31
0.0
  0
LINE
  8
default
 10
0.0050000000000000001
 20
0.044999999999999998
 30
0.0
 11
0.050000000000000003
 21
0
 31
0.0
  0
LINE
  8
default
 10
0
 20
0.050000000000000003
 30
0.0
 11
0
 21
0
 31
0.0
  0
LINE
  8
default
 10
0
 20
0
 30
0.0
 11
0
 21
-0.050000000000000003
 31
0.0
  0
LINE
  8
default
 10
0
 20
-0.050000000000000003
 30
0.0
 11
0.0050000000000000001
 21
-0.050000000000000003
 31
0.0
  0
LINE
  8
default
 10
0.0050000000000000001
 20
-0.044999999999999998
 30
0.0
 11
0.0050000000000000001
 21
-0.050000000000000003
 31
0.0
  0
LINE
  8
default
 10
0.0050000000000000001
 20
-0.044999999999999998
 30
0.0
 11
0.050000000000000003
 21
0
 31
0.0
  0
LINE
  8
default
 10
0.031
 20
-0.0050000000000000001
 30
0.0
 11
0.0050000000000000001
 21
-0.031
 31
0.0
  0
LINE
  8
default
 10
0.0050000000000000001
 20
-0.0050000000000000001
 30
0.0
 11
0.0050000000000000001
 21
-0.031
 31
0.0
  0
LINE
  8
default
 10
0.0050000000000000001
 20
-0.0050000000000000001
 30
0.0
 11
0.031
 21
-0.0050000000000000001
 31
0.0
  0
LINE
  8
default
 10
0.031
 20
0.0050000000000000001
 30
0.0
 11
0.0050000000000000001
 21
0.0050000000000000001
 31
0.0
  0
LINE
  8
default
 10
0.0050000000000000001
 20
0.0050000000000000001
 30
0.0
 11
0.0050000000000000001
 21
0.031
 31
0.0
  0
LINE
  8
default
 10
0.031
 20
0.0050000000000000001
 30
0.0
 11
0.0050000000000000001
 21
0.031
 31
0.0
  0
ENDSEC
  0
EOF
